<?xml version="1.0" encoding="utf-8"?>
<!-- Generator: Adobe Illustrator 23.1.1, SVG Export Plug-In . SVG Version: 6.00 Build 0)  -->
<svg version="1.1" id="Layer_1" xmlns="http://www.w3.org/2000/svg" xmlns:xlink="http://www.w3.org/1999/xlink" x="0px" y="0px"
	 viewBox="0 0 101 154" style="enable-background:new 0 0 101 154;" xml:space="preserve">
<style type="text/css">
	.st0{fill-rule:evenodd;clip-rule:evenodd;}
</style>
<path class="st0" d="M50.5,1L50.5,1C22.7,1.2,0.3,26.3,0.3,54.1c0,0,0,0.1,0,0.1c0,5.2,0.8,9.2,3,13.9C13.6,89.6,48.8,150,50.5,153
	v0c1.7-3,36.9-63.5,47.2-84.9c2.3-4.7,3-8.7,3-13.9c0,0,0-0.1,0-0.1C100.7,26.3,78.3,1.2,50.5,1z M50.5,74L50.5,74
	c-12.6,0-22.8-10.3-22.8-22.9s10.2-22.8,22.8-22.8v0c12.6,0,22.8,10.2,22.8,22.8S63.1,74,50.5,74z"/>
</svg>
